<svg xmlns="http://www.w3.org/2000/svg" width="249" height="111" fill="none" xmlns:v="https://vecta.io/nano"><path d="M51.49 72.239v15.915h-9.761V72.905c0-5.812-.976-7.445-4.574-7.445-5.306 0-6.53 4.598-6.53 11.982v10.712h-9.761V72.905c0-5.812-.976-7.445-4.573-7.445-5.307 0-6.53 4.598-6.53 11.982v10.712H0V57.589h9.761v3.088l-1.832 5.448h2.441c1.218-5.448 4.026-9.14 10.004-9.14s8.238 3.815 9.152 9.14h1.77c1.218-5.448 3.964-9.14 9.947-9.14 7.872 0 10.251 7.02 10.251 15.249l-.005.005zm3.659 15.915V79.68h8.724V65.7l-7.505.364V57.59l11.593-.604c3.417-.179 5.307 1.695 5.307 5.085v17.61h8.724v8.475H55.149h0zm40.268-11.316v11.317h-9.761V57.589h9.761v3.692l-1.832 5.448h2.442c1.218-5.448 5.064-9.744 11.65-9.744 7.872 0 12.631 5.203 12.631 14.645v16.524h-9.761V73.146c0-5.566-1.647-7.686-6.344-7.686-5.306 0-8.785 2.785-8.785 11.378h0zm45.021 3.451l11.346-.604v8.475l-15.924.604c-3.355.123-5.187-1.818-5.187-5.146V66.064h-7.32V57.59h7.32v-5.75l9.761-3.026v8.777h10.127v8.474h-10.127v14.22l.004.005z" fill="#000"/><path d="M162.307 102.521l11.346-.605v8.475l-15.924.604c-3.356.123-5.188-1.817-5.188-5.146V88.296h-7.32v-8.102l7.32-.741v-5.377l9.761-3.026v8.777h10.128v8.475h-10.128v14.22h.005zm30.016-23.299c9.58 0 16.291 5.628 16.291 14.891v3.026h-23.368c0 3.507 2.561 5.991 8.115 5.991 3.417 0 5.977-1.209 6.586-3.508h9.761c-.609 4.419-5.673 11.378-16.347 11.378-11.837 0-17.267-7.625-17.267-16.279 0-9.683 6.649-15.495 16.229-15.495v-.005zm7.139 12.469c0-2.299-1.709-4.599-7.139-4.599s-7.077 2.299-7.077 4.599h14.216zm25.623.722l9.699-1.331c0-2.483-1.951-3.994-6.163-3.994-3.902 0-6.101 1.633-6.101 4.419h-9.152c0-7.748 6.649-12.285 15.253-12.285s15.924 4.055 15.924 14.102v8.592H249v8.475h-6.772c-2.927 0-4.574-1.634-4.574-4.537v-.604l1.523-3.631h-2.441c-1.162 5.085-4.15 9.381-12.75 9.381-9.58 0-11.227-5.812-11.227-8.956 0-5.264 3.174-8.352 12.321-9.622l.005-.009zm.795 10.108c5.368 0 8.909-2.238 8.909-5.991l-7.872 1.091c-2.926.425-4.392.845-4.392 2.602s1.708 2.299 3.355 2.299zM67.009 44.573c-2.632.014-5.311 2.2-5.23 5.316.081 3.144 2.637 5.231 5.268 5.184 3.179-.057 5.206-2.616 5.264-5.241.067-3.092-2.67-5.278-5.302-5.264v.005zm8.139-26.439c5.492-.094 8.99-4.513 9.09-9.046.114-5.34-4.612-9.112-9.157-9.088s-9.171 3.801-9.033 9.178c.138 5.425 4.555 9.032 9.1 8.951v.005zm16.204 1.138c-9.176.047-18.499 7.667-18.223 18.526.276 10.944 9.185 18.224 18.361 18.063 11.07-.194 18.142-9.107 18.338-18.252.233-10.774-9.3-18.384-18.476-18.337h0zm.129 30.084c-5.197.09-10.242-4.041-10.399-10.25-.157-6.157 5.135-10.462 10.332-10.486s10.594 4.287 10.461 10.391c-.11 5.179-4.121 10.236-10.399 10.344h.005zM67.514 28.79c.19-8.725-7.534-14.886-14.958-14.843s-14.977 6.208-14.754 14.999c.224 8.862 7.439 14.754 14.863 14.626 8.966-.156 14.687-7.375 14.849-14.777v-.005zm-14.72 6.138c-3.874.052-7.624-2.361-7.748-5.991-.114-3.598 3.826-6.114 7.696-6.128s7.891 2.502 7.791 6.076c-.081 3.031-3.074 5.982-7.748 6.048l.009-.005z" fill="#3f68ff"/></svg>