<svg width="1019" height="4720" viewBox="0 0 1019 4720" fill="none" xmlns="http://www.w3.org/2000/svg">
<path fill-rule="evenodd" clip-rule="evenodd" d="M1 2734.7V0H151V2734.7C151 2737.47 153.239 2739.72 156 2739.72H863C948.604 2739.72 1018 2809.32 1018 2895.19V4333H868V2895.19C868 2892.42 865.761 2890.17 863 2890.17H156C70.3958 2890.17 1 2820.57 1 2734.7Z" stroke="white" stroke-width="2"/>
<circle cx="921.678" cy="4042.99" r="12.4968" transform="rotate(-0.630512 921.678 4042.99)" fill="white" fill-opacity="0.48"/>
<circle cx="926.752" cy="4098.47" r="8.03365" transform="rotate(-0.630512 926.752 4098.47)" fill="white" fill-opacity="0.48"/>
<circle cx="930.065" cy="4399.45" r="8.03365" transform="rotate(-0.630512 930.065 4399.45)" fill="white" fill-opacity="0.48"/>
<path d="M942.935 4173.08L942.935 4173.09L942.935 4173.1C942.838 4181.52 936.428 4189.76 926.264 4190.05C917.867 4190.28 909.608 4183.7 909.244 4173.63L909.244 4173.63C908.882 4163.71 917.341 4156.59 925.786 4156.45C934.232 4156.31 943.041 4163.24 942.935 4173.08ZM919.387 4179.6C921.313 4180.98 923.822 4181.72 926.345 4181.66L935.549 4173.3L936.549 4173.31C936.549 4173.31 936.549 4173.31 936.549 4173.31C936.592 4170.74 935.155 4168.65 933.181 4167.25C931.212 4165.84 928.624 4165.06 926.095 4165.1C923.571 4165.13 921.023 4165.98 919.11 4167.44C917.191 4168.9 915.837 4171.03 915.947 4173.61L915.947 4173.61C916.062 4176.15 917.449 4178.22 919.387 4179.6Z" stroke="white" stroke-width="2"/>
<path d="M955.903 4323.95L955.903 4323.96L955.903 4323.96C955.806 4332.38 949.395 4340.62 939.232 4340.91C930.835 4341.15 922.576 4334.57 922.211 4324.5L922.211 4324.5C921.849 4314.58 930.309 4307.46 938.754 4307.32C947.2 4307.18 956.009 4314.11 955.903 4323.95ZM932.354 4330.47C934.281 4331.84 936.79 4332.58 939.313 4332.52L948.517 4324.16L949.517 4324.18C949.517 4324.18 949.517 4324.18 949.517 4324.18C949.56 4321.61 948.122 4319.51 946.149 4318.11C944.18 4316.71 941.591 4315.93 939.063 4315.96C936.538 4316 933.991 4316.85 932.078 4318.31C930.158 4319.77 928.804 4321.9 928.914 4324.47L928.914 4324.47C929.029 4327.02 930.416 4329.08 932.354 4330.47Z" stroke="white" stroke-width="2"/>
<path d="M956.01 3945.5C950.441 3945.47 946.845 3941.02 946.693 3936.43C946.518 3931.01 951.267 3927.13 955.875 3927.11C960.483 3927.08 965.215 3930.86 965.136 3936.32C965.056 3941.82 960.619 3945.53 956.01 3945.5L956.01 3945.5Z" fill="white"/>
<path d="M953.589 4482.56C948.019 4482.52 944.424 4478.08 944.272 4473.49C944.096 4468.07 948.846 4464.19 953.454 4464.17C958.062 4464.14 962.794 4467.92 962.714 4473.37C962.635 4478.88 958.197 4482.59 953.589 4482.55L953.589 4482.56Z" fill="white"/>
<path d="M946.417 4425.52C943.003 4425.49 940.799 4422.77 940.706 4419.95C940.599 4416.64 943.51 4414.26 946.334 4414.24C949.158 4414.23 952.059 4416.54 952.01 4419.89C951.961 4423.26 949.241 4425.53 946.417 4425.51L946.417 4425.52Z" fill="white"/>
<circle cx="939.044" cy="4269.07" r="29.7543" transform="rotate(-0.630512 939.044 4269.07)" fill="white" fill-opacity="0.48"/>
<circle cx="958.053" cy="4130.65" r="17.555" transform="rotate(-0.630512 958.053 4130.65)" fill="white" fill-opacity="0.48"/>
<circle cx="957.675" cy="4366.67" r="17.555" transform="rotate(-0.630512 957.675 4366.67)" fill="white" fill-opacity="0.48"/>
<circle cx="935.603" cy="3983.37" r="8.03365" transform="rotate(-0.630512 935.603 3983.37)" fill="white" fill-opacity="0.48"/>
<circle cx="943.085" cy="3960.28" r="8.03365" transform="rotate(-0.630512 943.085 3960.28)" fill="white" fill-opacity="0.48"/>
<circle cx="956.434" cy="4010.6" r="12.4968" transform="rotate(-0.630512 956.434 4010.6)" fill="white" fill-opacity="0.48"/>
<circle cx="946.334" cy="4444.74" r="12.4968" transform="rotate(-0.630512 946.334 4444.74)" fill="white" fill-opacity="0.48"/>
<path d="M956.299 4198.12C947.821 4198.26 939.284 4205.39 939.65 4215.43C940.016 4225.54 948.322 4232.17 956.799 4231.93C967.025 4231.64 973.469 4223.33 973.556 4214.88C973.662 4204.92 964.777 4197.98 956.299 4198.12ZM956.724 4225.92C951.923 4226.06 947.219 4222.29 947.011 4216.55C946.804 4210.87 951.65 4206.83 956.451 4206.76C961.257 4206.68 966.284 4210.61 966.223 4216.26C966.174 4221.04 962.519 4225.76 956.719 4225.92L956.724 4225.92Z" fill="white"/>
<path d="M935.518 4062.34C931.056 4062.42 926.571 4066.91 926.775 4073.25C926.98 4079.64 931.359 4083.84 935.82 4083.7C941.202 4083.52 944.584 4078.28 944.621 4072.94C944.665 4066.65 939.98 4062.26 935.518 4062.34ZM935.774 4079.9C933.247 4079.98 930.767 4077.59 930.651 4073.97C930.535 4070.38 933.081 4067.84 935.608 4067.8C938.138 4067.75 940.788 4070.24 940.762 4073.81C940.742 4076.83 938.824 4079.8 935.772 4079.9L935.774 4079.9Z" fill="white"/>
<path d="M60.8448 2361.69C52.4482 2361.84 44.2598 2355.15 44.0055 2345.04L44.0055 2345.04C43.7529 2335.08 52.293 2328.04 60.7362 2327.99C69.1803 2327.94 77.9159 2334.99 77.7012 2344.86L77.701 2344.87V2344.87C77.5115 2353.33 71.008 2361.52 60.8448 2361.69ZM60.8448 2361.69L60.862 2362.69M60.8448 2361.69L60.862 2362.69M60.862 2362.69C51.9425 2362.85 43.2746 2355.75 43.0058 2345.07C42.7371 2334.47 51.8053 2327.04 60.7305 2326.99C69.65 2326.94 78.9297 2334.37 78.701 2344.88V2344.89C78.5066 2353.81 71.634 2362.51 60.862 2362.69ZM54.0814 2351.14C55.9926 2352.54 58.4933 2353.31 61.0178 2353.28L61.0191 2353.28C67.0153 2353.2 71.1971 2349.35 71.3129 2345.02C71.3843 2342.45 69.9712 2340.33 68.0133 2338.9C66.0596 2337.48 63.4796 2336.66 60.9498 2336.67C58.4245 2336.68 55.8678 2337.5 53.9386 2338.94C52.0028 2340.39 50.627 2342.51 50.7086 2345.09L50.7086 2345.09C50.7954 2347.64 52.1583 2349.73 54.0814 2351.14Z" stroke="white" stroke-width="2"/>
<path d="M72.1514 2494.4C63.7548 2494.54 55.5664 2487.85 55.3122 2477.75L55.3121 2477.75C55.0595 2467.79 63.5997 2460.74 72.0429 2460.7C80.4869 2460.65 89.2225 2467.69 89.0079 2477.56L89.0076 2477.57V2477.58C88.8181 2486.03 82.3147 2494.22 72.1514 2494.4ZM72.1514 2494.4L72.1686 2495.4M72.1514 2494.4L72.1686 2495.4M72.1686 2495.4C63.2491 2495.55 54.5812 2488.45 54.3125 2477.77C54.0437 2467.18 63.1119 2459.75 72.0371 2459.7C80.9566 2459.64 90.2363 2467.07 90.0076 2477.58V2477.59C89.8132 2486.51 82.9406 2495.21 72.1686 2495.4ZM65.388 2483.84C67.2992 2485.24 69.8 2486.01 72.3244 2485.98L72.3258 2485.99C78.322 2485.9 82.5038 2482.06 82.6195 2477.73C82.691 2475.15 81.2779 2473.04 79.3199 2471.61C77.3663 2470.18 74.7863 2469.37 72.2564 2469.38C69.7311 2469.38 67.1744 2470.21 65.2452 2471.65C63.3094 2473.09 61.9336 2475.22 62.0152 2477.79L62.0153 2477.79C62.102 2480.35 63.4649 2482.43 65.388 2483.84Z" stroke="white" stroke-width="2"/>
<path d="M93.2794 2126.45C87.7109 2126.35 84.1643 2121.86 84.063 2117.25C83.9471 2111.81 88.7387 2107.98 93.347 2108C97.9552 2108.02 102.645 2111.87 102.505 2117.34C102.366 2122.86 97.8876 2126.52 93.2794 2126.44V2126.45Z" fill="white"/>
<path d="M84.9482 2665C79.3798 2664.9 75.8331 2660.41 75.7318 2655.8C75.616 2650.37 80.4076 2646.53 85.0158 2646.55C89.624 2646.58 94.3142 2650.42 94.1743 2655.89C94.0344 2661.41 89.5564 2665.08 84.9482 2665V2665Z" fill="white"/>
<path d="M78.4043 2519.8C74.9914 2519.74 72.8177 2516.99 72.7556 2514.16C72.6846 2510.83 75.6214 2508.48 78.4457 2508.49C81.2701 2508.51 84.1448 2510.86 84.059 2514.22C83.9733 2517.6 81.2287 2519.85 78.4043 2519.8V2519.8Z" fill="white"/>
<circle cx="72.7543" cy="2417.44" r="29.7543" fill="white" fill-opacity="0.48"/>
<circle cx="93.2848" cy="2333.83" r="17.555" fill="white" fill-opacity="0.48"/>
<circle cx="90.3093" cy="2473.08" r="17.555" fill="white" fill-opacity="0.48"/>
<circle cx="57.8772" cy="2290.1" r="12.4968" fill="white" fill-opacity="0.48"/>
<circle cx="72.4567" cy="2222.55" r="8.03365" fill="white" fill-opacity="0.48"/>
<circle cx="80.1928" cy="2198.16" r="8.03365" fill="white" fill-opacity="0.48"/>
<circle cx="62.3403" cy="2324.31" r="8.03365" fill="white" fill-opacity="0.48"/>
<circle cx="62.3403" cy="2498.67" r="8.03365" fill="white" fill-opacity="0.48"/>
<circle cx="92.9872" cy="2248.44" r="12.4968" fill="white" fill-opacity="0.48"/>
<circle cx="78.1101" cy="2568.6" r="12.4968" fill="white" fill-opacity="0.48"/>
<path d="M90.7887 2371.03C82.31 2371.07 73.6949 2378.14 73.95 2388.2C74.2051 2398.35 82.4375 2405.09 90.9162 2404.95C101.145 2404.77 107.68 2396.5 107.86 2388.03C108.076 2378.04 99.2674 2370.98 90.7887 2371.03ZM90.9074 2398.91C86.1052 2399 81.4436 2395.17 81.2985 2389.41C81.1534 2383.71 86.0436 2379.72 90.8458 2379.69C95.6525 2379.67 100.635 2383.67 100.512 2389.33C100.411 2394.13 96.7036 2398.81 90.903 2398.91H90.9074Z" fill="white"/>
<path d="M71.5032 2290.1C67.0407 2290.12 62.5065 2294.59 62.6407 2300.94C62.775 2307.35 67.1078 2311.61 71.5703 2311.52C76.954 2311.4 80.3934 2306.19 80.4883 2300.83C80.6018 2294.52 75.9657 2290.07 71.5032 2290.1ZM71.5657 2307.71C69.0382 2307.76 66.5847 2305.34 66.5084 2301.71C66.432 2298.1 69.0058 2295.58 71.5333 2295.57C74.0631 2295.55 76.6855 2298.08 76.6207 2301.65C76.5675 2304.68 74.6163 2307.65 71.5634 2307.71H71.5657Z" fill="white"/>
<circle cx="967.134" cy="3380.67" r="12.4968" transform="rotate(179.362 967.134 3380.67)" fill="white" fill-opacity="0.48"/>
<circle cx="962.054" cy="3325.19" r="8.03365" transform="rotate(179.362 962.054 3325.19)" fill="white" fill-opacity="0.48"/>
<circle cx="958.704" cy="3024.21" r="8.03365" transform="rotate(179.362 958.704 3024.21)" fill="white" fill-opacity="0.48"/>
<path d="M945.862 3250.58L945.862 3250.57L945.862 3250.57C945.957 3242.14 952.367 3233.9 962.53 3233.61C970.928 3233.37 979.187 3239.96 979.553 3250.02L979.553 3250.02C979.916 3259.95 971.458 3267.06 963.013 3267.21C954.567 3267.35 945.757 3260.42 945.862 3250.58ZM969.409 3244.06C967.483 3242.68 964.974 3241.94 962.451 3242L953.248 3250.36L952.248 3250.35C952.248 3250.35 952.248 3250.35 952.248 3250.35C952.205 3252.92 953.643 3255.01 955.616 3256.41C957.586 3257.81 960.174 3258.6 962.703 3258.56C965.227 3258.52 967.774 3257.67 969.687 3256.22C971.607 3254.76 972.96 3252.62 972.85 3250.05L972.85 3250.05C972.735 3247.5 971.348 3245.44 969.409 3244.06ZM980.553 3249.99L980.548 3249.99L980.553 3249.99Z" stroke="white" stroke-width="2"/>
<path d="M932.876 3099.72L932.876 3099.71L932.876 3099.7C932.971 3091.28 939.381 3083.04 949.544 3082.75C957.941 3082.51 966.201 3089.09 966.567 3099.16L966.567 3099.16C966.93 3109.08 958.472 3116.2 950.027 3116.34C941.581 3116.48 932.77 3109.55 932.876 3099.72ZM956.423 3093.19C954.497 3091.82 951.988 3091.08 949.465 3091.14L940.262 3099.5L939.262 3099.48C939.262 3099.48 939.262 3099.48 939.262 3099.48C939.219 3102.05 940.657 3104.15 942.63 3105.55C944.599 3106.95 947.188 3107.73 949.717 3107.7C952.241 3107.66 954.788 3106.81 956.701 3105.35C958.621 3103.89 959.974 3101.76 959.864 3099.19L959.864 3099.19C959.749 3096.64 958.362 3094.58 956.423 3093.19ZM967.566 3099.12L967.562 3099.12L967.566 3099.12Z" stroke="white" stroke-width="2"/>
<path d="M932.815 3478.16C938.384 3478.2 941.98 3482.64 942.133 3487.23C942.309 3492.65 937.56 3496.53 932.952 3496.55C928.344 3496.58 923.611 3492.8 923.69 3487.35C923.769 3481.84 928.206 3478.14 932.815 3478.17L932.815 3478.16Z" fill="white"/>
<path d="M935.17 2941.1C940.74 2941.14 944.336 2945.58 944.488 2950.17C944.664 2955.59 939.916 2959.47 935.308 2959.49C930.699 2959.52 925.967 2955.74 926.046 2950.29C926.125 2944.79 930.562 2941.08 935.17 2941.11L935.17 2941.1Z" fill="white"/>
<path d="M942.349 2998.15C945.763 2998.17 947.967 3000.89 948.06 3003.71C948.168 3007.02 945.258 3009.4 942.433 3009.42C939.609 3009.44 936.708 3007.12 936.757 3003.78C936.805 3000.4 939.525 2998.13 942.349 2998.15L942.349 2998.15Z" fill="white"/>
<circle cx="949.741" cy="3154.59" r="29.7543" transform="rotate(179.362 949.741 3154.59)" fill="white" fill-opacity="0.48"/>
<circle cx="930.749" cy="3293.01" r="17.555" transform="rotate(179.362 930.749 3293.01)" fill="white" fill-opacity="0.48"/>
<circle cx="931.099" cy="3056.99" r="17.555" transform="rotate(179.362 931.099 3056.99)" fill="white" fill-opacity="0.48"/>
<circle cx="953.217" cy="3440.29" r="8.03365" transform="rotate(179.362 953.217 3440.29)" fill="white" fill-opacity="0.48"/>
<circle cx="945.738" cy="3463.38" r="8.03365" transform="rotate(179.362 945.738 3463.38)" fill="white" fill-opacity="0.48"/>
<circle cx="932.383" cy="3413.06" r="12.4968" transform="rotate(179.362 932.383 3413.06)" fill="white" fill-opacity="0.48"/>
<circle cx="942.43" cy="2978.92" r="12.4968" transform="rotate(179.362 942.43 2978.92)" fill="white" fill-opacity="0.48"/>
<path d="M932.495 3225.54C940.972 3225.4 949.509 3218.27 949.142 3208.23C948.774 3198.12 940.467 3191.49 931.991 3191.73C921.765 3192.02 915.322 3200.33 915.235 3208.79C915.131 3218.75 924.017 3225.68 932.495 3225.54ZM932.067 3197.74C936.868 3197.61 941.571 3201.37 941.78 3207.11C941.989 3212.8 937.143 3216.83 932.341 3216.9C927.535 3216.98 922.509 3213.05 922.569 3207.41C922.617 3202.62 926.272 3197.91 932.071 3197.74L932.067 3197.74Z" fill="white"/>
<path d="M953.292 3361.32C957.754 3361.24 962.239 3356.74 962.034 3350.41C961.829 3344.02 957.449 3339.82 952.988 3339.96C947.605 3340.14 944.224 3345.38 944.189 3350.72C944.145 3357.01 948.83 3361.4 953.292 3361.32ZM953.034 3343.76C955.561 3343.68 958.041 3346.06 958.158 3349.69C958.274 3353.28 955.729 3355.82 953.201 3355.86C950.672 3355.91 948.022 3353.42 948.047 3349.86C948.066 3346.83 949.985 3343.86 953.037 3343.76L953.034 3343.76Z" fill="white"/>
<path d="M65.8448 931.703C57.4482 931.847 49.2598 925.156 49.0055 915.051L49.0055 915.051C48.7529 905.091 57.293 898.049 65.7362 898C74.1803 897.952 82.9159 904.999 82.7012 914.867L82.701 914.878V914.883C82.5115 923.334 76.008 931.526 65.8448 931.703ZM65.8448 931.703L65.862 932.703M65.8448 931.703L65.862 932.703M65.862 932.703C56.9425 932.856 48.2746 925.756 48.0058 915.076C47.7371 904.482 56.8053 897.051 65.7305 897C74.65 896.949 83.9297 904.374 83.701 914.888V914.894C83.5066 923.815 76.634 932.515 65.862 932.703ZM59.0814 921.146C60.9926 922.547 63.4933 923.316 66.0178 923.285L66.0191 923.291C72.0153 923.205 76.1971 919.36 76.3129 915.03C76.3843 912.458 74.9712 910.341 73.0133 908.912C71.0596 907.486 68.4796 906.67 65.9498 906.68C63.4245 906.689 60.8678 907.513 58.9386 908.951C57.0028 910.394 55.627 912.52 55.7086 915.096L55.7086 915.099C55.7954 917.651 57.1583 919.736 59.0814 921.146Z" stroke="white" stroke-width="2"/>
<path d="M94.0079 1107.87L94.0076 1107.88V1107.88C93.8181 1116.33 87.3145 1124.53 77.1514 1124.7C68.7548 1124.85 60.5664 1118.16 60.3122 1108.05L60.3121 1108.05C60.0595 1098.09 68.5997 1091.05 77.0429 1091C85.4869 1090.95 94.2225 1098 94.0079 1107.87ZM70.388 1114.15C72.2992 1115.55 74.8 1116.32 77.3244 1116.29L77.3258 1116.29C83.322 1116.21 87.5038 1112.36 87.6195 1108.03C87.691 1105.46 86.2779 1103.34 84.3199 1101.91C82.3663 1100.49 79.7863 1099.67 77.2564 1099.68C74.7311 1099.69 72.1744 1100.51 70.2452 1101.95C68.3094 1103.39 66.9336 1105.52 67.0152 1108.1L67.0153 1108.1C67.102 1110.65 68.4649 1112.74 70.388 1114.15Z" stroke="white" stroke-width="2"/>
<path d="M98.2794 686.448C92.7109 686.352 89.1643 681.856 89.063 677.245C88.9471 671.814 93.7387 667.976 98.347 668C102.955 668.024 107.645 671.866 107.505 677.337C107.366 682.855 102.888 686.524 98.2794 686.443V686.448Z" fill="white"/>
<path d="M89.9482 1224.45C84.3798 1224.35 80.8331 1219.86 80.7318 1215.25C80.616 1209.81 85.4076 1205.98 90.0158 1206C94.624 1206.02 99.3142 1209.87 99.1743 1215.34C99.0344 1220.86 94.5564 1224.52 89.9482 1224.44V1224.45Z" fill="white"/>
<path d="M83.4043 1167.31C79.9914 1167.25 77.8177 1164.49 77.7556 1161.67C77.6846 1158.34 80.6214 1155.99 83.4457 1156C86.2701 1156.01 89.1448 1158.37 89.059 1161.72C88.9733 1165.1 86.2287 1167.35 83.4043 1167.3V1167.31Z" fill="white"/>
<circle cx="77.7543" cy="1010.75" r="29.7543" fill="white" fill-opacity="0.48"/>
<circle cx="98.2848" cy="872.555" r="17.555" fill="white" fill-opacity="0.48"/>
<circle cx="95.3093" cy="1065.56" r="17.555" fill="white" fill-opacity="0.48"/>
<circle cx="62.8772" cy="784.497" r="12.4968" fill="white" fill-opacity="0.48"/>
<circle cx="77.4567" cy="725.034" r="8.03365" fill="white" fill-opacity="0.48"/>
<circle cx="85.1928" cy="702.034" r="8.03365" fill="white" fill-opacity="0.48"/>
<circle cx="67.3403" cy="840.034" r="8.03365" fill="white" fill-opacity="0.48"/>
<circle cx="67.3403" cy="1141.03" r="8.03365" fill="white" fill-opacity="0.48"/>
<circle cx="97.9872" cy="752.497" r="12.4968" fill="white" fill-opacity="0.48"/>
<circle cx="83.1101" cy="1186.5" r="12.4968" fill="white" fill-opacity="0.48"/>
<path d="M95.7887 940C87.31 940.044 78.6949 947.108 78.95 957.173C79.2051 967.318 87.4375 974.066 95.9162 973.917C106.145 973.738 112.68 965.475 112.86 956.998C113.076 947.011 104.267 939.956 95.7887 940ZM95.9074 967.887C91.1052 967.97 86.4436 964.141 86.2985 958.386C86.1534 952.679 91.0436 948.687 95.8458 948.666C100.653 948.639 105.635 952.639 105.512 958.298C105.411 963.099 101.704 967.786 95.903 967.887H95.9074Z" fill="white"/>
<path d="M76.5032 804C72.0407 804.028 67.5065 808.489 67.6407 814.846C67.775 821.253 72.1078 825.516 76.5703 825.422C81.954 825.308 85.3934 820.09 85.4883 814.736C85.6018 808.428 80.9657 803.972 76.5032 804ZM76.5657 821.613C74.0382 821.665 71.5847 819.247 71.5084 815.612C71.432 812.008 74.0058 809.487 76.5333 809.473C79.0631 809.456 81.6855 811.983 81.6207 815.557C81.5675 818.589 79.6163 821.549 76.5634 821.613H76.5657Z" fill="white"/>
<path d="M74.1514 173.703C65.7548 173.847 57.5664 167.156 57.3122 157.051L57.3121 157.051C57.0595 147.091 65.5997 140.049 74.0429 140C82.4869 139.952 91.2225 146.999 91.0079 156.867L91.0076 156.878V156.883C90.8181 165.334 84.3147 173.526 74.1514 173.703ZM74.1514 173.703L74.1686 174.703M74.1514 173.703L74.1686 174.703M74.1686 174.703C65.2491 174.856 56.5812 167.756 56.3125 157.076C56.0437 146.482 65.1119 139.051 74.0371 139C82.9566 138.949 92.2363 146.374 92.0076 156.888V156.894C91.8132 165.815 84.9406 174.515 74.1686 174.703ZM67.388 163.146C69.2992 164.547 71.8 165.316 74.3244 165.285L74.3258 165.291C80.322 165.205 84.5038 161.36 84.6195 157.03C84.691 154.458 83.2779 152.341 81.3199 150.912C79.3663 149.486 76.7863 148.67 74.2564 148.68C71.7311 148.689 69.1744 149.513 67.2452 150.951C65.3094 152.394 63.9336 154.52 64.0152 157.096L64.0153 157.099C64.102 159.651 65.4649 161.736 67.388 163.146Z" stroke="white" stroke-width="2"/>
<path d="M86.9482 273.448C81.3798 273.352 77.8331 268.856 77.7318 264.245C77.616 258.814 82.4076 254.976 87.0158 255C91.624 255.024 96.3142 258.866 96.1743 264.337C96.0344 269.855 91.5564 273.524 86.9482 273.443V273.448Z" fill="white"/>
<path d="M80.4043 216.307C76.9914 216.248 74.8177 213.492 74.7556 210.667C74.6846 207.337 77.6214 204.985 80.4457 205C83.2701 205.015 86.1448 207.37 86.059 210.723C85.9733 214.105 83.2287 216.354 80.4043 216.304V216.307Z" fill="white"/>
<circle cx="74.7543" cy="59.7543" r="29.7543" fill="white" fill-opacity="0.48"/>
<circle cx="92.3093" cy="114.555" r="17.555" fill="white" fill-opacity="0.48"/>
<circle cx="64.3403" cy="190.034" r="8.03365" fill="white" fill-opacity="0.48"/>
<circle cx="80.1101" cy="235.497" r="12.4968" fill="white" fill-opacity="0.48"/>
<path d="M92.7887 -10.9998C84.31 -10.956 75.6949 -3.89249 75.95 6.17327C76.2051 16.3178 84.4375 23.0663 92.9162 22.9175C103.145 22.738 109.68 14.4753 109.86 5.99822C110.076 -3.98877 101.267 -11.0436 92.7887 -10.9998ZM92.9074 16.8868C88.1052 16.9699 83.4436 13.1405 83.2985 7.38554C83.1534 1.67869 88.0436 -2.3126 92.8458 -2.33449C97.6525 -2.36074 102.635 1.6393 102.512 7.29801C102.411 12.0989 98.7036 16.7861 92.903 16.8868H92.9074Z" fill="white"/>
</svg>
