<svg xmlns="http://www.w3.org/2000/svg" width="729" height="594" fill="none" xmlns:v="https://vecta.io/nano"><path d="M330.552 488.698c-24.465.133-49.373 20.519-48.621 49.579.752 29.325 24.51 48.787 48.975 48.346 29.553-.528 48.4-24.393 48.93-48.874.62-28.84-24.819-49.227-49.284-49.095v.044zm75.652-246.574c51.054-.881 83.572-42.094 84.501-84.363 1.061-49.799-42.87-84.98-85.12-84.76s-85.252 35.445-83.969 85.596c1.283 50.592 42.338 84.232 84.588 83.483v.044zm150.641 10.611c-85.297.441-171.965 71.507-169.399 172.778 2.566 102.064 85.385 169.96 170.682 168.462 102.904-1.805 168.647-84.935 170.46-170.223 2.168-100.479-86.446-171.457-171.743-171.017zm1.194 280.566c-48.311.836-95.206-37.691-96.666-95.592-1.46-57.416 47.736-97.572 96.047-97.792 48.355-.265 98.48 39.98 97.242 96.912-1.018 48.302-38.313 95.459-96.667 96.472h.044z" fill="#3f68ff"/><path d="M334.242 341.48v.011.011.033c-1.5 68.57-54.309 135.385-137.049 136.828C128.7 479.543 62.11 425.001 60.045 342.93v-.001c-2.063-81.351 67.575-138.467 136.153-138.861 68.54-.393 139.8 56.689 138.044 137.412zm-185.514 43.01c13.524 9.916 31.418 15.477 49.592 15.253l.01.043c43.826-.622 72.239-28.43 73.01-57.376.476-17.083-8.863-31.566-22.768-41.718s-32.449-16.044-50.658-15.978c-18.185.067-36.546 6.029-50.249 16.242-13.709 10.218-22.828 24.757-22.285 41.942l.001.003c.587 17.294 9.789 31.648 23.347 41.589z" stroke="#3f68ff" stroke-width="2"/><path d="M212.637 323.045c-24.465.132-49.372 20.518-48.62 49.579.752 29.324 24.509 48.786 48.974 48.346 29.553-.529 48.4-24.394 48.931-48.875.619-28.84-24.819-49.226-49.285-49.094v.044zm69.98-153.921c51.054-.881 83.571-42.094 84.5-84.363 1.062-49.799-42.869-84.98-85.12-84.76s-85.252 35.445-83.969 85.596c1.283 50.592 42.339 84.232 84.589 83.483v.044zm246.837-46.122c-85.296.44-171.964 71.506-169.398 172.778 2.566 102.064 85.385 169.959 170.681 168.462 102.905-1.805 168.647-84.936 170.461-170.224 2.168-100.478-86.447-171.456-171.744-171.016zm1.195 280.566c-48.311.836-95.207-37.691-96.667-95.592-1.46-57.416 47.736-97.572 96.048-97.793 48.355-.264 98.48 39.981 97.241 96.913-1.017 48.302-38.312 95.459-96.666 96.472h.044z" fill="#fff"/></svg>