<svg xmlns="http://www.w3.org/2000/svg" width="68" height="440" fill="none" xmlns:v="https://vecta.io/nano"><path d="M46.008 156.867v.011.005c-.189 8.451-6.693 16.643-16.856 16.82-8.397.144-16.585-6.547-16.839-16.652h0c-.253-9.96 8.288-17.002 16.731-17.051s17.18 6.999 16.965 16.867zm-23.62 6.279c1.911 1.401 4.412 2.17 6.936 2.139l.001.006c5.996-.086 10.178-3.931 10.294-8.261.072-2.572-1.342-4.689-3.3-6.118s-4.534-2.242-7.063-2.232-5.082.833-7.011 2.271c-1.936 1.443-3.312 3.569-3.23 6.145v.003c.087 2.552 1.45 4.637 3.373 6.047z" stroke="#fff" stroke-width="2"/><g fill="#fff"><path d="M41.948 273.448c-5.568-.096-9.115-4.592-9.216-9.203-.116-5.431 4.676-9.269 9.284-9.245s9.298 3.866 9.159 9.337c-.14 5.518-4.618 9.187-9.226 9.106v.005zm-6.544-57.141c-3.413-.059-5.587-2.815-5.649-5.64-.071-3.33 2.866-5.682 5.69-5.667s5.699 2.37 5.613 5.723c-.086 3.382-2.83 5.631-5.655 5.581v.003z"/><circle cx="29.754" cy="59.754" r="29.754" fill-opacity=".48"/><circle cx="47.309" cy="114.555" r="17.555" fill-opacity=".48"/><circle cx="19.34" cy="190.034" r="8.034" fill-opacity=".48"/><circle cx="35.11" cy="235.497" r="12.497" fill-opacity=".48"/><path d="M47.789-11c-8.479.044-17.094 7.107-16.839 17.173.255 10.145 8.488 16.893 16.966 16.744 10.229-.18 16.764-8.442 16.944-16.919.215-9.987-8.593-17.042-17.072-16.998zm.119 27.887c-4.802.083-9.464-3.746-9.609-9.501-.145-5.707 4.745-9.698 9.547-9.72s9.789 3.974 9.666 9.633c-.101 4.801-3.808 9.488-9.609 9.589h.004z"/></g></svg>