<svg xmlns="http://www.w3.org/2000/svg" width="68" height="557" fill="none" xmlns:v="https://vecta.io/nano"><style><![CDATA[.B{fill-opacity:.48}]]></style><path d="M34.701 236.858v.011.006c-.19 8.45-6.693 16.642-16.856 16.819-8.397.145-16.585-6.547-16.839-16.651v-.001c-.253-9.959 8.288-17.002 16.731-17.05s17.18 6.998 16.965 16.866zm-23.62 6.279c1.911 1.401 4.412 2.171 6.936 2.139l.001.006c5.996-.085 10.178-3.93 10.294-8.261.072-2.571-1.342-4.689-3.299-6.118s-4.534-2.241-7.064-2.232-5.082.834-7.011 2.271c-1.936 1.443-3.312 3.569-3.23 6.146v.002c.087 2.552 1.45 4.637 3.373 6.047zm34.927 126.425v.011.006c-.189 8.45-6.693 16.642-16.856 16.819-8.397.145-16.585-6.547-16.839-16.651v-.001c-.253-9.959 8.288-17.002 16.731-17.05s17.18 6.999 16.965 16.866zm-23.62 6.279c1.911 1.401 4.412 2.171 6.936 2.14l.001.005c5.996-.085 10.178-3.93 10.294-8.261.072-2.571-1.342-4.688-3.3-6.118s-4.534-2.241-7.063-2.232-5.082.834-7.011 2.272c-1.936 1.442-3.312 3.568-3.23 6.145v.002c.087 2.552 1.45 4.637 3.373 6.047z" stroke="#fff" stroke-width="2"/><g fill="#fff"><path d="M50.279 18.448c-5.568-.096-9.115-4.591-9.216-9.202-.116-5.432 4.676-9.27 9.284-9.246s9.298 3.866 9.158 9.337c-.14 5.518-4.618 9.188-9.226 9.106v.005zM41.948 557c-5.568-.096-9.115-4.591-9.216-9.202-.116-5.432 4.676-9.27 9.284-9.246s9.298 3.867 9.159 9.337c-.14 5.519-4.618 9.188-9.226 9.106V557zm-6.544-145.201c-3.413-.059-5.587-2.814-5.649-5.64-.071-3.329 2.866-5.681 5.69-5.666s5.699 2.369 5.613 5.722c-.086 3.382-2.83 5.631-5.655 5.581v.003z"/><circle cx="29.754" cy="309.444" r="29.754" class="B"/><circle cx="50.285" cy="225.835" r="17.555" class="B"/><circle cx="47.309" cy="365.085" r="17.555" class="B"/><circle cx="14.877" cy="182.096" r="12.497" class="B"/><circle cx="29.457" cy="114.554" r="8.034" class="B"/><circle cx="37.193" cy="90.156" r="8.034" class="B"/><circle cx="19.34" cy="216.314" r="8.034" class="B"/><circle cx="19.34" cy="390.674" r="8.034" class="B"/><circle cx="49.987" cy="140.44" r="12.497" class="B"/><circle cx="35.11" cy="460.596" r="12.497" class="B"/><path d="M47.789 263.028c-8.479.044-17.094 7.107-16.839 17.173.255 10.145 8.488 16.893 16.966 16.744 10.229-.179 16.764-8.442 16.944-16.919.215-9.987-8.593-17.042-17.072-16.998zm.119 27.887c-4.802.083-9.464-3.747-9.609-9.502-.145-5.706 4.745-9.698 9.547-9.72s9.789 3.974 9.666 9.633c-.101 4.801-3.808 9.488-9.609 9.589h.004zM28.503 182.096c-4.462.028-8.997 4.489-8.862 10.846.134 6.408 4.467 10.67 8.93 10.576 5.384-.114 8.823-5.332 8.918-10.686.113-6.308-4.523-10.763-8.985-10.736zm.063 17.613c-2.527.052-4.981-2.366-5.057-6.001-.076-3.604 2.497-6.125 5.025-6.139s5.152 2.51 5.087 6.084c-.053 3.032-2.004 5.992-5.057 6.056h.002z"/></g></svg>