<svg xmlns="http://www.w3.org/2000/svg" width="68" height="661" fill="none" xmlns:v="https://vecta.io/nano"><style><![CDATA[.B{fill-opacity:.48}]]></style><g fill="#fff" class="B"><circle cx="54.135" cy="508.67" r="12.497" transform="rotate(179.362 54.135 508.67)"/><circle cx="49.054" cy="453.186" r="8.034" transform="rotate(179.362 49.054 453.186)"/><circle cx="45.705" cy="152.205" r="8.034" transform="rotate(179.362 45.705 152.205)"/></g><path d="M32.862 378.582v-.011-.005c.096-8.423 6.505-16.664 16.669-16.954 8.397-.237 16.657 6.345 17.023 16.411v.001c.363 9.921-8.095 17.039-16.54 17.182s-17.256-6.788-17.151-16.624zm23.548-6.526c-1.927-1.376-4.435-2.115-6.959-2.055l-9.203 8.364-1-.017c-.043 2.567 1.395 4.663 3.368 6.066s4.558 2.184 7.087 2.147 5.071-.888 6.984-2.342c1.919-1.46 3.273-3.596 3.163-6.167v-.002c-.115-2.546-1.502-4.61-3.441-5.994zM19.876 227.717v-.011-.005c.096-8.423 6.506-16.664 16.669-16.954 8.397-.237 16.657 6.345 17.023 16.412h0c.363 9.922-8.095 17.039-16.54 17.182s-17.256-6.788-17.151-16.624zm23.548-6.526c-1.927-1.375-4.435-2.115-6.959-2.055l-9.203 8.364-1-.017c-.043 2.567 1.395 4.664 3.368 6.067s4.558 2.183 7.087 2.146 5.071-.887 6.984-2.342c1.919-1.46 3.273-3.596 3.163-6.166v-.003c-.115-2.545-1.502-4.61-3.441-5.994z" stroke="#fff" stroke-width="2"/><g fill="#fff"><path d="M19.815 606.162c5.569.034 9.165 4.476 9.318 9.072.176 5.414-4.573 9.293-9.181 9.32s-9.341-3.751-9.261-9.206c.079-5.503 4.516-9.211 9.125-9.181v-.005zM22.17 69.103c5.569.034 9.165 4.476 9.318 9.072.176 5.414-4.573 9.293-9.181 9.321s-9.341-3.751-9.262-9.206c.079-5.503 4.516-9.211 9.125-9.181v-.005zm7.179 57.043c3.413.021 5.618 2.743 5.711 5.56.108 3.318-2.803 5.696-5.627 5.713s-5.725-2.299-5.676-5.643c.048-3.373 2.768-5.645 5.592-5.627v-.003z"/><circle cx="36.741" cy="282.592" r="29.754" transform="rotate(179.362 36.741 282.592)" class="B"/><circle cx="17.749" cy="421.011" r="17.555" transform="rotate(179.362 17.749 421.011)" class="B"/><circle cx="18.099" cy="184.993" r="17.555" transform="rotate(179.362 18.099 184.993)" class="B"/><circle cx="40.217" cy="568.292" r="8.034" transform="rotate(179.362 40.217 568.292)" class="B"/><circle cx="32.738" cy="591.377" r="8.034" transform="rotate(179.362 32.738 591.377)" class="B"/><circle cx="19.383" cy="541.059" r="12.497" transform="rotate(179.362 19.383 541.059)" class="B"/><circle cx="29.43" cy="106.92" r="12.497" transform="rotate(179.362 29.43 106.92)" class="B"/><path d="M19.495 353.543c8.478-.138 17.014-7.276 16.647-17.309-.368-10.111-8.674-16.747-17.151-16.504-10.226.292-16.669 8.603-16.755 17.056-.105 9.959 8.782 16.895 17.259 16.757zm-.428-27.801c4.801-.136 9.505 3.629 9.714 9.365.209 5.688-4.637 9.722-9.439 9.797s-9.833-3.853-9.772-9.496c.048-4.787 3.703-9.501 9.502-9.666h-.004zM40.292 489.32c4.462-.078 8.946-4.576 8.742-10.912-.205-6.386-4.585-10.587-9.046-10.444-5.382.173-8.763 5.414-8.799 10.753-.043 6.289 4.642 10.68 9.104 10.603zm-.258-17.559c2.527-.08 5.007 2.304 5.124 5.927.116 3.592-2.429 6.134-4.956 6.176s-5.18-2.445-5.155-6.009c.02-3.023 1.938-5.996 4.99-6.094h-.002z"/></g></svg>