<svg xmlns="http://www.w3.org/2000/svg" width="68" height="457" fill="none" xmlns:v="https://vecta.io/nano"><style><![CDATA[.B{fill-opacity:.48}]]></style><g fill="#fff" class="B"><circle cx="13.678" cy="166.988" r="12.497" transform="rotate(359.369 13.678 166.988)"/><circle cx="18.752" cy="222.472" r="8.034" transform="rotate(359.369 18.752 222.472)"/></g><path d="M34.935 297.079v.011.005c-.097 8.423-6.508 16.663-16.671 16.951-8.397.237-16.656-6.346-17.021-16.413h0c-.362-9.922 8.098-17.039 16.543-17.18s17.255 6.79 17.149 16.626zm-23.548 6.523c1.927 1.376 4.435 2.115 6.958 2.056l9.204-8.363 1 .017c.043-2.567-1.394-4.663-3.368-6.067s-4.558-2.184-7.086-2.147-5.071.887-6.985 2.341c-1.92 1.46-3.273 3.595-3.164 6.166v.002c.115 2.546 1.502 4.61 3.44 5.995zm36.516 144.343v.011.006c-.097 8.423-6.508 16.662-16.671 16.951-8.397.236-16.656-6.347-17.021-16.413v-.001c-.362-9.921 8.098-17.038 16.543-17.18s17.255 6.791 17.149 16.626zm-23.548 6.523c1.926 1.376 4.435 2.116 6.958 2.057l9.204-8.363 1 .017c.043-2.568-1.394-4.664-3.368-6.067s-4.558-2.185-7.086-2.148-5.071.887-6.985 2.342c-1.92 1.459-3.273 3.595-3.164 6.165v.003c.115 2.546 1.502 4.61 3.44 5.994z" stroke="#fff" stroke-width="2"/><g fill="#fff"><path d="M48.01 69.5c-5.569-.034-9.165-4.477-9.317-9.073-.175-5.414 4.574-9.293 9.182-9.32s9.34 3.752 9.26 9.208c-.079 5.503-4.517 9.211-9.126 9.18v.005z"/><circle cx="31.044" cy="393.068" r="29.754" transform="rotate(359.369 31.044 393.068)" class="B"/><circle cx="50.053" cy="254.651" r="17.555" transform="rotate(359.369 50.053 254.651)" class="B"/><circle cx="27.603" cy="107.368" r="8.034" transform="rotate(359.369 27.603 107.368)" class="B"/><circle cx="35.085" cy="84.284" r="8.034" transform="rotate(359.369 35.085 84.284)" class="B"/><circle cx="48.434" cy="134.604" r="12.497" transform="rotate(359.369 48.434 134.604)" class="B"/><path d="M48.299 322.12c-8.478.137-17.015 7.274-16.649 17.306.366 10.111 8.672 16.749 17.149 16.507 10.226-.292 16.67-8.601 16.758-17.055.106-9.959-8.779-16.895-17.257-16.758zm.425 27.801c-4.801.135-9.504-3.631-9.713-9.367-.208-5.688 4.638-9.721 9.44-9.796s9.832 3.854 9.771 9.497c-.048 4.788-3.704 9.501-9.503 9.666h.004zM27.518 186.34c-4.462.077-8.947 4.574-8.743 10.911.205 6.386 4.584 10.588 9.045 10.445 5.382-.172 8.764-5.413 8.8-10.752.044-6.289-4.641-10.681-9.102-10.604zm.256 17.559c-2.527.08-5.007-2.304-5.123-5.927-.116-3.593 2.43-6.134 4.957-6.176s5.179 2.446 5.154 6.009c-.02 3.024-1.939 5.997-4.991 6.094h.002z"/></g></svg>