<svg xmlns="http://www.w3.org/2000/svg" width="282" height="126" fill="none" xmlns:v="https://vecta.io/nano"><path d="M58.313 82.001v18.066H47.26v-17.31c0-6.598-1.105-8.452-5.18-8.452-6.01 0-7.395 5.22-7.395 13.602v12.16H23.63v-17.31c0-6.598-1.105-8.452-5.18-8.452-6.01 0-7.394 5.22-7.394 13.602v12.16H0V65.371h11.055v3.505L8.98 75.061h2.765c1.38-6.185 4.56-10.376 11.33-10.376s9.33 4.33 10.364 10.376h2.005c1.38-6.185 4.49-10.376 11.265-10.376 8.915 0 11.61 7.97 11.61 17.31l-.006.006zm4.145 18.066v-9.62h9.88V74.58l-8.5.412v-9.62l13.13-.685c3.87-.204 6.01 1.923 6.01 5.771v19.99h9.88v9.62h-30.4zm45.604-12.847v12.847H97.008V65.371h11.054v4.191l-2.075 6.185h2.765c1.38-6.185 5.735-11.062 13.195-11.062 8.915 0 14.304 5.906 14.304 16.625v18.757h-11.054V83.03c0-6.319-1.865-8.725-7.185-8.725-6.01 0-9.95 3.162-9.95 12.916zm50.989 3.918l12.849-.686v9.62l-18.034.686c-3.8.14-5.875-2.063-5.875-5.841V74.99h-8.29v-9.62h8.29v-6.527l11.054-3.435v9.962h11.47v9.62h-11.47v16.142l.006.005z" fill="#fff"/><g filter="url(#A)"><path d="m183.817 116.375 12.85-.686v9.62l-18.035.686c-3.8.139-5.875-2.064-5.875-5.842v-19.925h-8.289v-9.197l8.289-.841v-6.104l11.055-3.436v9.963h11.47v9.62h-11.47v16.142h.005Z" fill="#92ffd5"/></g><path d="M217.812 89.927c10.849 0 18.449 6.388 18.449 16.903v3.435h-26.464c0 3.982 2.9 6.801 9.19 6.801 3.87 0 6.769-1.372 7.459-3.982h11.055c-.69 5.017-6.425 12.916-18.514 12.916-13.405 0-19.555-8.655-19.555-18.479 0-10.991 7.53-17.588 18.38-17.588v-.006zm8.084 14.154c0-2.61-1.935-5.22-8.084-5.22s-8.015 2.61-8.015 5.22h16.099zm29.02.82l10.984-1.511c0-2.819-2.21-4.534-6.98-4.534-4.419 0-6.909 1.854-6.909 5.016h-10.365c0-8.795 7.529-13.945 17.274-13.945s18.035 4.604 18.035 16.008v9.754H282v9.62h-7.67c-3.315 0-5.18-1.855-5.18-5.151v-.686l1.725-4.121h-2.765c-1.315 5.772-4.7 10.649-14.439 10.649-10.85 0-12.715-6.597-12.715-10.166 0-5.976 3.595-9.481 13.954-10.922l.006-.011zm.9 11.474c6.08 0 10.09-2.54 10.09-6.801l-8.915 1.238c-3.315.482-4.975.959-4.975 2.953s1.935 2.61 3.8 2.61zM75.89 50.596c-2.98.016-6.015 2.498-5.924 6.035.092 3.569 2.986 5.938 5.967 5.884 3.6-.064 5.897-2.969 5.961-5.949.076-3.51-3.023-5.991-6.004-5.975v.005zm9.217-30.011c6.22-.108 10.181-5.124 10.294-10.269C95.531 4.256 90.18-.027 85.031 0s-10.386 4.314-10.23 10.418c.156 6.158 5.158 10.252 10.306 10.161v.006zm18.352 1.291c-10.392.054-20.95 8.704-20.638 21.03.313 12.422 10.403 20.686 20.795 20.504 12.536-.22 20.546-10.338 20.767-20.719.264-12.23-10.532-20.868-20.924-20.815zm.146 34.149c-5.886.102-11.6-4.587-11.777-11.635-.178-6.988 5.816-11.876 11.701-11.903 5.891-.032 11.998 4.867 11.847 11.796-.124 5.879-4.667 11.619-11.777 11.742h.006zM76.461 32.68c.216-9.903-8.532-16.897-16.94-16.849-8.414.048-16.962 7.047-16.709 17.026.253 10.06 8.424 16.748 16.833 16.603 10.154-.177 16.633-8.371 16.816-16.774v-.006zm-16.67 6.967c-4.388.06-8.635-2.68-8.775-6.8-.13-4.084 4.333-6.94 8.715-6.957 4.387-.016 8.936 2.84 8.823 6.898-.091 3.44-3.482 6.79-8.775 6.865l.011-.006z" fill="#92ffd5"/><defs><filter id="A" x="158.468" y="76.65" width="40.199" height="53.35" filterUnits="userSpaceOnUse" color-interpolation-filters="sRGB"><feFlood flood-opacity="0" result="A"/><feColorMatrix in="SourceAlpha" values="0 0 0 0 0 0 0 0 0 0 0 0 0 0 0 0 0 0 127 0" result="B"/><feOffset dx="-2"/><feGaussianBlur stdDeviation="2"/><feComposite in2="B" operator="out"/><feColorMatrix values="0 0 0 0 0 0 0 0 0 0 0 0 0 0 0 0 0 0 0.25 0"/><feBlend in2="A"/><feBlend in="SourceGraphic"/></filter></defs></svg>