<svg xmlns="http://www.w3.org/2000/svg" viewBox="0 0 585.65 383.69" xmlns:v="https://vecta.io/nano"><path d="M190.92 47.73c14.71-.25 24.09-11.88 24.36-23.81.3-14.06-12.36-23.98-24.54-23.92s-24.57 10-24.2 24.16c.37 14.28 12.2 23.77 24.38 23.56zm-23.21 102.14c-12.18.06-24.57 10-24.2 24.16.37 14.28 12.2 23.77 24.38 23.56 14.71-.25 24.1-11.88 24.36-23.81.31-14.06-12.35-23.98-24.54-23.92zm88.32-93.71c-29.73.15-59.95 24.4-59.06 58.96.9 34.84 29.77 58 59.5 57.49 35.88-.61 58.79-28.99 59.43-58.09.75-34.3-30.14-58.52-59.87-58.36zm.41 91.24c-16.84.29-33.19-12.87-33.7-32.62-.51-19.59 16.64-33.3 33.49-33.38 16.85-.09 34.33 13.64 33.9 33.08-.36 16.49-13.36 32.58-33.7 32.92zm-77.67-60.95c.61-27.77-24.41-47.38-48.47-47.25-24.07.13-48.54 19.76-47.81 47.74.73 28.21 24.11 46.96 48.17 46.55 29.05-.49 47.6-23.47 48.12-47.04zm-48.14 19.53c-10.02.17-19.73-7.65-20.04-19.4-.3-11.65 9.9-19.8 19.91-19.85 10.02-.05 20.41 8.11 20.16 19.67-.21 9.81-7.95 19.37-20.04 19.58z" fill="#e47969"/><path d="M108.64 201.23c-12.78 0-23.7 5.94-29.68 15.81-4.89-10.12-14.53-15.81-27.18-15.81-10.31 0-19.31 4.38-25.09 11.85-.84-7.22-5.99-11.94-13.33-11.94C5.37 201.14 0 206.8 0 215.22v75.85c0 8.77 5.42 14.44 13.81 14.44s13.9-5.8 13.9-14.44v-48.41c0-10.15 6.46-17.23 15.7-17.23s14.26 5.43 14.26 14.53v51.11c0 8.91 5.19 14.44 13.54 14.44s13.54-5.67 13.54-14.44v-48.95c0-9.98 6.24-16.69 15.52-16.69 11.94 0 14.44 8.54 14.44 15.7v49.94c0 8.77 5.46 14.44 13.9 14.44s13.81-5.67 13.81-14.44v-55.42c0-20.58-13.58-34.41-33.78-34.41zm60.74-.09c-8.26 0-13.81 5.8-13.81 14.44v75.49c0 8.77 5.42 14.44 13.81 14.44s13.9-5.8 13.9-14.44v-75.4c0-8.69-5.59-14.53-13.9-14.53zm81.97.09c-11.92 0-21.31 4.12-27.59 12-.8-7.21-6.17-12.09-13.62-12.09-8.12 0-13.36 5.49-13.36 13.99v75.94c0 8.77 5.42 14.44 13.81 14.44s13.9-5.8 13.9-14.44v-45.26c0-12.33 7.22-20.29 18.4-20.29s16.42 6.02 16.42 18.4v47.15c0 8.64 5.59 14.44 13.9 14.44s13.81-5.67 13.81-14.44v-51.65c0-23.92-13.34-38.19-35.67-38.19zm90.44 79.83l-1.69-.19c-4.45-.37-6.57-1.7-6.57-8.24v-47.01h7.69c7.08 0 11.65-4.47 11.65-11.38s-4.57-11.2-11.65-11.2h-7.69v-10.03c0-4.22-1.3-7.81-3.75-10.38-2.48-2.6-5.96-3.97-10.06-3.97-8.44 0-13.9 5.63-13.9 14.35v10.03h-3.38c-7.08 0-11.65 4.4-11.65 11.2s4.57 11.38 11.65 11.38h3.38v51.87c0 17.8 9.6 27.22 27.76 27.22h.9c16.85 0 18.67-8.9 18.67-12.73 0-4.51-1.98-10.06-11.36-10.91z" fill="#fff"/><path d="M383.27 359.15l-1.69-.19c-4.45-.37-6.57-1.7-6.57-8.24v-47.01h7.69c7.08 0 11.65-4.47 11.65-11.38s-4.57-11.2-11.65-11.2h-7.69V271.1c0-4.22-1.3-7.81-3.75-10.38-2.48-2.6-5.96-3.97-10.06-3.97-8.44 0-13.9 5.63-13.9 14.35v10.03h-3.38c-7.08 0-11.65 4.4-11.65 11.2s4.57 11.38 11.65 11.38h3.38v51.87c0 17.8 9.6 27.22 27.76 27.22h.9c16.85 0 18.67-8.9 18.67-12.73 0-4.51-1.98-10.06-11.36-10.92zm108.17-32.9c0-27.73-19.15-47.1-46.56-47.1-29 0-47.73 20.68-47.73 52.68s18.31 51.87 48.99 51.87c19.27 0 34.23-7.54 41.06-20.72 1.18-2.37 1.81-4.74 1.81-6.85 0-6.54-4.9-11.29-11.65-11.29-3.92 0-6.68 1.3-9.53 4.48l-.11.13c-6.67 8.51-12.57 11.67-21.76 11.67-12.48 0-20.45-8.22-21.14-21.6h53.53c8.07 0 13.09-5.08 13.09-13.27zm-66.17-6.79c1.77-10.66 9.41-17.64 19.7-17.64s17.65 6.83 19 17.64h-38.7zm118.68-40.31c-19.54 0-34.98 7.54-40.27 19.59-1.2 2.52-1.79 4.89-1.79 7.26 0 6.75 5.09 11.65 12.1 11.65 4.62 0 8.38-1.86 11.19-5.54l.08-.12c4.97-7.29 9.79-10 17.78-10 13.19 0 15.16 8.2 15.16 13.09v4.33l-22.79 1.3c-24.63 1.53-38.75 12.89-38.75 31.17s14.19 31.44 34.5 31.44c10.82 0 20.98-4.46 27.64-11.79.72 7.36 5.87 12.06 13.3 12.06 8.1 0 13.54-5.59 13.54-13.9v-56.23c0-20.53-16.76-34.32-41.7-34.32zm14.26 60.18v4.47c0 9.71-8.87 17.32-20.2 17.32-10.05 0-13.63-5.23-13.63-10.12 0-8.59 10.16-10.2 14.51-10.49l19.32-1.18z" fill="#e47969"/></svg>