<svg xmlns="http://www.w3.org/2000/svg" width="1019" height="7000" fill="none" xmlns:v="https://vecta.io/nano"><style><![CDATA[.B{fill-opacity:.48}.C{stroke:#fff}.D{stroke-width:2}.E{fill:#fff}]]></style><path d="M1 2734.7V0h150v2734.7c0 2.77 2.239 5.02 5 5.02h707c85.604 0 155 69.6 155 155.47V4333H868V2895.19c0-2.77-2.239-5.02-5-5.02H156c-85.604 0-155-69.6-155-155.47z" class="C D"/><g class="E B"><circle cx="921.678" cy="4042.99" r="12.497" transform="rotate(359.369 921.678 4042.99)"/><circle cx="926.752" cy="4098.47" r="8.034" transform="rotate(359.369 926.752 4098.47)"/><circle cx="930.065" cy="4399.45" r="8.034" transform="rotate(359.369 930.065 4399.45)"/></g><path d="M942.935 4173.08v.01.01c-.097 8.42-6.507 16.66-16.671 16.95-8.397.23-16.656-6.35-17.02-16.42h0c-.362-9.92 8.097-17.04 16.542-17.18s17.255 6.79 17.149 16.63zm-23.548 6.52c1.926 1.38 4.435 2.12 6.958 2.06l9.204-8.36 1 .01c.043-2.57-1.394-4.66-3.368-6.06-1.969-1.41-4.557-2.19-7.086-2.15-2.524.03-5.072.88-6.985 2.34-1.919 1.46-3.273 3.59-3.163 6.17h0c.115 2.54 1.502 4.61 3.44 5.99zm36.516 144.35v.01h0c-.097 8.42-6.508 16.66-16.671 16.95-8.397.24-16.656-6.34-17.021-16.41h0c-.362-9.92 8.098-17.04 16.543-17.18s17.255 6.79 17.149 16.63zm-23.549 6.52c1.927 1.37 4.436 2.11 6.959 2.05l9.204-8.36 1 .02c.043-2.57-1.395-4.67-3.368-6.07s-4.558-2.18-7.086-2.15c-2.525.04-5.072.89-6.985 2.35-1.92 1.46-3.274 3.59-3.164 6.16h0c.115 2.55 1.502 4.61 3.44 6z" class="C D"/><g class="E"><path d="M956.01 3945.5c-5.569-.03-9.165-4.48-9.317-9.07-.175-5.42 4.574-9.3 9.182-9.32 4.608-.03 9.34 3.75 9.261 9.21-.08 5.5-4.517 9.21-9.126 9.18h0zm-2.421 537.06c-5.57-.04-9.165-4.48-9.317-9.07-.176-5.42 4.574-9.3 9.182-9.32 4.608-.03 9.34 3.75 9.26 9.2-.079 5.51-4.517 9.22-9.125 9.18v.01zm-7.172-57.04c-3.414-.03-5.618-2.75-5.711-5.57-.107-3.31 2.804-5.69 5.628-5.71 2.824-.01 5.725 2.3 5.676 5.65-.049 3.37-2.769 5.64-5.593 5.62v.01z"/><circle cx="939.044" cy="4269.07" r="29.754" transform="rotate(359.369 939.044 4269.07)" class="B"/><circle cx="958.053" cy="4130.65" r="17.555" transform="rotate(359.369 958.053 4130.65)" class="B"/><circle cx="957.675" cy="4366.67" r="17.555" transform="rotate(359.369 957.675 4366.67)" class="B"/><circle cx="935.603" cy="3983.37" r="8.034" transform="rotate(359.369 935.603 3983.37)" class="B"/><circle cx="943.085" cy="3960.28" r="8.034" transform="rotate(359.369 943.085 3960.28)" class="B"/><circle cx="956.434" cy="4010.6" r="12.497" transform="rotate(359.369 956.434 4010.6)" class="B"/><circle cx="946.334" cy="4444.74" r="12.497" transform="rotate(359.369 946.334 4444.74)" class="B"/><path d="M956.299 4198.12c-8.478.14-17.015 7.27-16.649 17.31.366 10.11 8.672 16.74 17.149 16.5 10.226-.29 16.67-8.6 16.757-17.05.106-9.96-8.779-16.9-17.257-16.76zm.425 27.8c-4.801.14-9.505-3.63-9.713-9.37-.207-5.68 4.639-9.72 9.44-9.79 4.806-.08 9.833 3.85 9.772 9.5-.049 4.78-3.704 9.5-9.504 9.66h.005zm-21.206-163.58c-4.462.08-8.947 4.57-8.743 10.91.205 6.39 4.584 10.59 9.045 10.45 5.382-.18 8.764-5.42 8.801-10.76.044-6.29-4.641-10.68-9.103-10.6zm.256 17.56c-2.527.08-5.007-2.31-5.123-5.93-.116-3.59 2.43-6.13 4.957-6.17 2.53-.05 5.18 2.44 5.154 6.01-.02 3.02-1.938 5.99-4.99 6.09h.002z"/></g><path d="M60.845 2361.69c-8.397.15-16.585-6.54-16.839-16.65h0c-.253-9.96 8.288-17 16.731-17.05s17.18 7 16.965 16.87v.01h0c-.189 8.46-6.693 16.65-16.856 16.82zm0 0l.017 1m-.017-1l.017 1m0 0c-8.919.16-17.587-6.94-17.856-17.62-.269-10.6 8.8-18.03 17.725-18.08 8.92-.05 18.199 7.38 17.97 17.89v.01c-.194 8.92-7.067 17.62-17.839 17.8zm-6.781-11.55c1.911 1.4 4.412 2.17 6.936 2.14h.001c5.996-.08 10.178-3.93 10.294-8.26.071-2.57-1.342-4.69-3.3-6.12-1.954-1.42-4.534-2.24-7.063-2.23s-5.082.83-7.011 2.27c-1.936 1.45-3.312 3.57-3.23 6.15h0c.087 2.55 1.45 4.64 3.373 6.05zm18.07 143.26c-8.397.14-16.585-6.55-16.839-16.65h0c-.253-9.96 8.288-17.01 16.731-17.05 8.444-.05 17.18 6.99 16.965 16.86v.01.01c-.189 8.45-6.693 16.64-16.856 16.82zm0 0l.017 1m-.017-1l.017 1m0 0c-8.919.15-17.587-6.95-17.856-17.63-.269-10.59 8.799-18.02 17.725-18.07 8.92-.06 18.199 7.37 17.971 17.88v.01c-.194 8.92-7.067 17.62-17.839 17.81zm-6.781-11.56c1.911 1.4 4.412 2.17 6.936 2.14l.001.01c5.996-.09 10.178-3.93 10.294-8.26.072-2.58-1.342-4.69-3.3-6.12s-4.534-2.24-7.064-2.23c-2.525 0-5.082.83-7.011 2.27-1.936 1.44-3.312 3.57-3.23 6.14h0c.087 2.56 1.45 4.64 3.373 6.05z" class="C D"/><g class="E"><path d="M93.279 2126.45c-5.568-.1-9.115-4.59-9.216-9.2-.116-5.44 4.676-9.27 9.284-9.25s9.298 3.87 9.158 9.34c-.139 5.52-4.617 9.18-9.226 9.1v.01zM84.948 2665c-5.568-.1-9.115-4.59-9.216-9.2-.116-5.43 4.676-9.27 9.284-9.25 4.608.03 9.298 3.87 9.159 9.34-.14 5.52-4.618 9.19-9.226 9.11h0zm-6.544-145.2c-3.413-.06-5.587-2.81-5.649-5.64-.071-3.33 2.866-5.68 5.69-5.67 2.824.02 5.699 2.37 5.613 5.73-.086 3.38-2.83 5.63-5.655 5.58h0z"/><circle cx="72.754" cy="2417.44" r="29.754" class="B"/><circle cx="93.285" cy="2333.83" r="17.555" class="B"/><circle cx="90.309" cy="2473.08" r="17.555" class="B"/><circle cx="57.877" cy="2290.1" r="12.497" class="B"/><circle cx="72.457" cy="2222.55" r="8.034" class="B"/><circle cx="80.193" cy="2198.16" r="8.034" class="B"/><circle cx="62.34" cy="2324.31" r="8.034" class="B"/><circle cx="62.34" cy="2498.67" r="8.034" class="B"/><circle cx="92.987" cy="2248.44" r="12.497" class="B"/><circle cx="78.11" cy="2568.6" r="12.497" class="B"/><path d="M90.789 2371.03c-8.479.04-17.094 7.11-16.839 17.17.255 10.15 8.487 16.89 16.966 16.75 10.229-.18 16.764-8.45 16.944-16.92.216-9.99-8.593-17.05-17.071-17zm.119 27.88c-4.802.09-9.464-3.74-9.609-9.5-.145-5.7 4.745-9.69 9.547-9.72 4.807-.02 9.789 3.98 9.666 9.64-.101 4.8-3.808 9.48-9.609 9.58h.004zM71.503 2290.1c-4.463.02-8.997 4.49-8.863 10.84.134 6.41 4.467 10.67 8.93 10.58 5.384-.12 8.823-5.33 8.918-10.69.114-6.31-4.523-10.76-8.985-10.73zm.063 17.61c-2.528.05-4.981-2.37-5.057-6-.076-3.61 2.497-6.13 5.025-6.14 2.53-.02 5.152 2.51 5.087 6.08-.053 3.03-2.004 6-5.057 6.06h.002z"/><circle cx="967.134" cy="3380.67" r="12.497" transform="rotate(179.362 967.134 3380.67)" class="B"/><circle cx="962.054" cy="3325.19" r="8.034" transform="rotate(179.362 962.054 3325.19)" class="B"/><circle cx="958.704" cy="3024.21" r="8.034" transform="rotate(179.362 958.704 3024.21)" class="B"/></g><path d="M945.862 3250.58v-.01h0c.095-8.43 6.505-16.67 16.668-16.96 8.398-.24 16.657 6.35 17.023 16.41h0c.363 9.93-8.095 17.04-16.54 17.19-8.446.14-17.256-6.79-17.151-16.63zm23.547-6.52c-1.926-1.38-4.435-2.12-6.958-2.06l-9.203 8.36-1-.01c-.043 2.57 1.395 4.66 3.368 6.06s4.558 2.19 7.087 2.15 5.071-.89 6.984-2.34c1.92-1.46 3.273-3.6 3.163-6.17h0c-.115-2.55-1.502-4.61-3.441-5.99zm11.144 5.93h-.005.005zm-47.677-150.27v-.01-.01c.095-8.42 6.505-16.66 16.668-16.95 8.397-.24 16.657 6.34 17.023 16.41h0c.363 9.92-8.095 17.04-16.54 17.18s-17.257-6.79-17.151-16.62zm23.547-6.53c-1.926-1.37-4.435-2.11-6.958-2.05l-9.203 8.36-1-.02c-.043 2.57 1.395 4.67 3.368 6.07s4.558 2.18 7.087 2.15c2.524-.04 5.071-.89 6.984-2.35 1.92-1.46 3.273-3.59 3.163-6.16h0c-.115-2.55-1.502-4.61-3.441-6zm11.143 5.93h-.004.004z" class="C D"/><g class="E"><path d="M932.815 3478.16c5.569.04 9.165 4.48 9.318 9.07.176 5.42-4.573 9.3-9.181 9.32-4.608.03-9.341-3.75-9.262-9.2.079-5.51 4.516-9.21 9.125-9.18v-.01zm2.355-537.06c5.57.04 9.166 4.48 9.318 9.07.176 5.42-4.572 9.3-9.18 9.32-4.609.03-9.341-3.75-9.262-9.2.079-5.5 4.516-9.21 9.124-9.18v-.01zm7.179 57.05c3.414.02 5.618 2.74 5.711 5.56.108 3.31-2.802 5.69-5.627 5.71s-5.725-2.3-5.676-5.64c.048-3.38 2.768-5.65 5.592-5.63h0z"/><circle cx="949.741" cy="3154.59" r="29.754" transform="rotate(179.362 949.741 3154.59)" class="B"/><circle cx="930.749" cy="3293.01" r="17.555" transform="rotate(179.362 930.749 3293.01)" class="B"/><circle cx="931.099" cy="3056.99" r="17.555" transform="rotate(179.362 931.099 3056.99)" class="B"/><circle cx="953.217" cy="3440.29" r="8.034" transform="rotate(179.362 953.217 3440.29)" class="B"/><circle cx="945.738" cy="3463.38" r="8.034" transform="rotate(179.362 945.738 3463.38)" class="B"/><circle cx="932.383" cy="3413.06" r="12.497" transform="rotate(179.362 932.383 3413.06)" class="B"/><circle cx="942.43" cy="2978.92" r="12.497" transform="rotate(179.362 942.43 2978.92)" class="B"/><path d="M932.495 3225.54c8.477-.14 17.014-7.27 16.647-17.31-.368-10.11-8.675-16.74-17.151-16.5-10.226.29-16.669 8.6-16.756 17.06-.104 9.96 8.782 16.89 17.26 16.75zm-.428-27.8c4.801-.13 9.504 3.63 9.713 9.37.209 5.69-4.637 9.72-9.439 9.79-4.806.08-9.832-3.85-9.772-9.49.048-4.79 3.703-9.5 9.502-9.67h-.004zm21.225 163.58c4.462-.08 8.947-4.58 8.742-10.91-.205-6.39-4.585-10.59-9.046-10.45-5.383.18-8.764 5.42-8.799 10.76-.044 6.29 4.641 10.68 9.103 10.6zm-.258-17.56c2.527-.08 5.007 2.3 5.124 5.93.116 3.59-2.429 6.13-4.957 6.17-2.529.05-5.179-2.44-5.154-6 .019-3.03 1.938-6 4.99-6.1h-.003z"/></g><path d="M65.845 931.703c-8.397.144-16.585-6.547-16.839-16.652h0c-.253-9.96 8.288-17.002 16.731-17.051s17.18 6.999 16.965 16.867v.011.005c-.189 8.451-6.693 16.643-16.856 16.82zm0 0l.017 1m-.017-1l.017 1m0 0c-8.919.153-17.587-6.947-17.856-17.627-.269-10.594 8.8-18.025 17.725-18.076s18.199 7.374 17.97 17.888v.006c-.194 8.921-7.067 17.621-17.839 17.809zm-6.781-11.557c1.911 1.401 4.412 2.17 6.936 2.139l.001.006c5.996-.086 10.178-3.931 10.294-8.261.071-2.572-1.342-4.689-3.3-6.118s-4.534-2.242-7.064-2.232-5.082.833-7.011 2.271c-1.936 1.443-3.312 3.569-3.23 6.145v.003c.087 2.552 1.45 4.637 3.373 6.047zm34.927 186.724v.01h0c-.189 8.45-6.693 16.65-16.856 16.82-8.397.15-16.585-6.54-16.839-16.65h0c-.253-9.96 8.288-17 16.731-17.05s17.18 7 16.965 16.87zm-23.62 6.28c1.911 1.4 4.412 2.17 6.936 2.14h.001c5.996-.08 10.178-3.93 10.294-8.26.072-2.57-1.342-4.69-3.3-6.12-1.954-1.42-4.534-2.24-7.064-2.23s-5.082.83-7.011 2.27c-1.936 1.44-3.312 3.57-3.23 6.15h0c.087 2.55 1.45 4.64 3.373 6.05z" class="C D"/><g class="E"><path d="M98.279 686.448c-5.568-.096-9.115-4.592-9.216-9.203-.116-5.431 4.676-9.269 9.284-9.245s9.298 3.866 9.158 9.337c-.139 5.518-4.617 9.187-9.226 9.106v.005zm-8.331 538.002c-5.568-.1-9.115-4.59-9.216-9.2-.116-5.44 4.676-9.27 9.284-9.25s9.298 3.87 9.159 9.34c-.14 5.52-4.618 9.18-9.226 9.1v.01zm-6.544-57.14c-3.413-.06-5.587-2.82-5.649-5.64-.071-3.33 2.866-5.68 5.69-5.67s5.699 2.37 5.613 5.72c-.086 3.38-2.83 5.63-5.655 5.58v.01z"/><circle cx="77.754" cy="1010.75" r="29.754" class="B"/><circle cx="98.285" cy="872.555" r="17.555" class="B"/><circle cx="95.309" cy="1065.56" r="17.555" class="B"/><circle cx="62.877" cy="784.497" r="12.497" class="B"/><circle cx="77.457" cy="725.034" r="8.034" class="B"/><circle cx="85.193" cy="702.034" r="8.034" class="B"/><circle cx="67.34" cy="840.034" r="8.034" class="B"/><circle cx="67.34" cy="1141.03" r="8.034" class="B"/><circle cx="97.987" cy="752.497" r="12.497" class="B"/><circle cx="83.11" cy="1186.5" r="12.497" class="B"/><path d="M95.789 940c-8.479.044-17.094 7.108-16.839 17.173.255 10.145 8.487 16.893 16.966 16.744 10.229-.179 16.764-8.442 16.944-16.919.216-9.987-8.593-17.042-17.071-16.998zm.119 27.887c-4.802.083-9.464-3.746-9.609-9.501-.145-5.707 4.745-9.699 9.547-9.72 4.807-.027 9.789 3.973 9.666 9.632-.101 4.801-3.808 9.488-9.609 9.589h.004zM76.503 804c-4.463.028-8.997 4.489-8.863 10.846.134 6.407 4.467 10.67 8.93 10.576 5.384-.114 8.823-5.332 8.918-10.686.114-6.308-4.523-10.764-8.985-10.736zm.063 17.613c-2.528.052-4.981-2.366-5.057-6.001-.076-3.604 2.497-6.125 5.025-6.139s5.152 2.51 5.087 6.084c-.053 3.032-2.004 5.992-5.057 6.056h.002z"/></g><path d="M74.151 173.703c-8.397.144-16.585-6.547-16.839-16.652h0c-.253-9.96 8.288-17.002 16.731-17.051s17.18 6.999 16.965 16.867v.011.005c-.189 8.451-6.693 16.643-16.856 16.82zm0 0l.017 1m-.017-1l.017 1m0 0c-8.919.153-17.587-6.947-17.856-17.627-.269-10.594 8.799-18.025 17.725-18.076 8.92-.051 18.199 7.374 17.971 17.888v.006c-.194 8.921-7.067 17.621-17.839 17.809zm-6.781-11.557c1.911 1.401 4.412 2.17 6.936 2.139l.001.006c5.996-.086 10.178-3.931 10.294-8.261.072-2.572-1.342-4.689-3.3-6.118s-4.534-2.242-7.064-2.232-5.082.833-7.011 2.271c-1.936 1.443-3.312 3.569-3.23 6.145v.003c.087 2.552 1.45 4.637 3.373 6.047z" class="C D"/><g class="E"><path d="M86.948 273.448c-5.568-.096-9.115-4.592-9.216-9.203-.116-5.431 4.676-9.269 9.284-9.245s9.298 3.866 9.159 9.337c-.14 5.518-4.618 9.187-9.226 9.106v.005zm-6.544-57.141c-3.413-.059-5.587-2.815-5.649-5.64-.071-3.33 2.866-5.682 5.69-5.667s5.699 2.37 5.613 5.723c-.086 3.382-2.83 5.631-5.655 5.581v.003z"/><circle cx="74.754" cy="59.754" r="29.754" class="B"/><circle cx="92.309" cy="114.555" r="17.555" class="B"/><circle cx="64.34" cy="190.034" r="8.034" class="B"/><circle cx="80.11" cy="235.497" r="12.497" class="B"/><path d="M92.789-11c-8.479.044-17.094 7.107-16.839 17.173.255 10.145 8.487 16.893 16.966 16.744 10.229-.18 16.764-8.442 16.944-16.919.216-9.987-8.593-17.042-17.071-16.998zm.119 27.887c-4.802.083-9.464-3.746-9.609-9.501-.145-5.707 4.745-9.698 9.547-9.72s9.789 3.974 9.666 9.633c-.101 4.801-3.808 9.488-9.609 9.589h.004z"/></g></svg>